<?xml version="1.0" encoding="UTF-8" standalone="no"?>
<!DOCTYPE svg PUBLIC "-//W3C//DTD SVG 1.1//EN"
 "http://www.w3.org/Graphics/SVG/1.1/DTD/svg11.dtd">
<!-- Generated by graphviz version 2.43.0 (0)
 -->
<!-- Title: %3 Pages: 1 -->
<svg width="692pt" height="116pt"
 viewBox="0.00 0.00 692.00 116.00" xmlns="http://www.w3.org/2000/svg" xmlns:xlink="http://www.w3.org/1999/xlink">
<g id="graph0" class="graph" transform="scale(1 1) rotate(0) translate(4 112)">
<title>%3</title>
<polygon fill="white" stroke="transparent" points="-4,4 -4,-112 688,-112 688,4 -4,4"/>
<!-- x -->
<g id="node1" class="node">
<title>x</title>
<path fill="#fcbf49" stroke="black" stroke-width="0" d="M96,-72C96,-72 12,-72 12,-72 6,-72 0,-66 0,-60 0,-60 0,-48 0,-48 0,-42 6,-36 12,-36 12,-36 96,-36 96,-36 102,-36 108,-42 108,-48 108,-48 108,-60 108,-60 108,-66 102,-72 96,-72"/>
<text text-anchor="middle" x="54" y="-50.3" font-family="Helvetica,Arial,sans-serif" font-size="14.00" fill="#003049">x</text>
</g>
<!-- a -->
<g id="node2" class="node">
<title>a</title>
<ellipse fill="#fcbf49" stroke="black" stroke-width="0" cx="198" cy="-54" rx="54" ry="54"/>
<text text-anchor="middle" x="198" y="-50.3" font-family="Helvetica,Arial,sans-serif" font-size="14.00" fill="#003049">a(x)</text>
</g>
<!-- x&#45;&gt;a -->
<g id="edge1" class="edge">
<title>x&#45;&gt;a</title>
<path fill="none" stroke="#003049" d="M108.28,-54C116.56,-54 125.18,-54 133.66,-54"/>
<polygon fill="#003049" stroke="#003049" points="143.89,-54 133.89,-58.5 138.89,-54 133.89,-54 133.89,-54 133.89,-54 138.89,-54 133.89,-49.5 143.89,-54 143.89,-54"/>
</g>
<!-- y -->
<g id="node3" class="node">
<title>y</title>
<path fill="#fcbf49" stroke="black" stroke-width="0" d="M384,-72C384,-72 300,-72 300,-72 294,-72 288,-66 288,-60 288,-60 288,-48 288,-48 288,-42 294,-36 300,-36 300,-36 384,-36 384,-36 390,-36 396,-42 396,-48 396,-48 396,-60 396,-60 396,-66 390,-72 384,-72"/>
<text text-anchor="middle" x="342" y="-50.3" font-family="Helvetica,Arial,sans-serif" font-size="14.00" fill="#003049">y</text>
</g>
<!-- a&#45;&gt;y -->
<g id="edge2" class="edge">
<title>a&#45;&gt;y</title>
<path fill="none" stroke="#003049" d="M252.28,-54C260.56,-54 269.18,-54 277.66,-54"/>
<polygon fill="#003049" stroke="#003049" points="287.89,-54 277.89,-58.5 282.89,-54 277.89,-54 277.89,-54 277.89,-54 282.89,-54 277.89,-49.5 287.89,-54 287.89,-54"/>
</g>
<!-- b -->
<g id="node4" class="node">
<title>b</title>
<ellipse fill="#fcbf49" stroke="black" stroke-width="0" cx="486" cy="-54" rx="54" ry="54"/>
<text text-anchor="middle" x="486" y="-50.3" font-family="Helvetica,Arial,sans-serif" font-size="14.00" fill="#003049">b(y)</text>
</g>
<!-- y&#45;&gt;b -->
<g id="edge3" class="edge">
<title>y&#45;&gt;b</title>
<path fill="none" stroke="#003049" d="M396.28,-54C404.56,-54 413.18,-54 421.66,-54"/>
<polygon fill="#003049" stroke="#003049" points="431.89,-54 421.89,-58.5 426.89,-54 421.89,-54 421.89,-54 421.89,-54 426.89,-54 421.89,-49.5 431.89,-54 431.89,-54"/>
</g>
<!-- z -->
<g id="node5" class="node">
<title>z</title>
<path fill="#fcbf49" stroke="black" stroke-width="0" d="M672,-72C672,-72 588,-72 588,-72 582,-72 576,-66 576,-60 576,-60 576,-48 576,-48 576,-42 582,-36 588,-36 588,-36 672,-36 672,-36 678,-36 684,-42 684,-48 684,-48 684,-60 684,-60 684,-66 678,-72 672,-72"/>
<text text-anchor="middle" x="630" y="-50.3" font-family="Helvetica,Arial,sans-serif" font-size="14.00" fill="#003049">z</text>
</g>
<!-- b&#45;&gt;z -->
<g id="edge4" class="edge">
<title>b&#45;&gt;z</title>
<path fill="none" stroke="#003049" d="M540.28,-54C548.56,-54 557.18,-54 565.66,-54"/>
<polygon fill="#003049" stroke="#003049" points="575.89,-54 565.89,-58.5 570.89,-54 565.89,-54 565.89,-54 565.89,-54 570.89,-54 565.89,-49.5 575.89,-54 575.89,-54"/>
</g>
</g>
</svg>
