<?xml version="1.0" encoding="UTF-8" standalone="no"?>
<!DOCTYPE svg PUBLIC "-//W3C//DTD SVG 1.1//EN"
 "http://www.w3.org/Graphics/SVG/1.1/DTD/svg11.dtd">
<!-- Generated by graphviz version 2.43.0 (0)
 -->
<!-- Title: %3 Pages: 1 -->
<svg width="716pt" height="170pt"
 viewBox="0.00 0.00 716.00 170.00" xmlns="http://www.w3.org/2000/svg" xmlns:xlink="http://www.w3.org/1999/xlink">
<g id="graph0" class="graph" transform="scale(1 1) rotate(0) translate(4 166)">
<title>%3</title>
<polygon fill="white" stroke="transparent" points="-4,4 -4,-166 712,-166 712,4 -4,4"/>
<!-- x -->
<g id="node1" class="node">
<title>x</title>
<path fill="#fcbf49" stroke="black" stroke-width="0" d="M96,-153C96,-153 12,-153 12,-153 6,-153 0,-147 0,-141 0,-141 0,-129 0,-129 0,-123 6,-117 12,-117 12,-117 96,-117 96,-117 102,-117 108,-123 108,-129 108,-129 108,-141 108,-141 108,-147 102,-153 96,-153"/>
<text text-anchor="middle" x="54" y="-131.3" font-family="Helvetica,Arial,sans-serif" font-size="14.00" fill="#003049">x</text>
</g>
<!-- * -->
<g id="node3" class="node">
<title>*</title>
<ellipse fill="#fcbf49" stroke="black" stroke-width="0" cx="199" cy="-108" rx="54" ry="54"/>
<text text-anchor="middle" x="199" y="-111.8" font-family="Helvetica,Arial,sans-serif" font-size="14.00" fill="#003049">*</text>
<text text-anchor="middle" x="199" y="-96.8" font-family="Helvetica,Arial,sans-serif" font-size="14.00" fill="#003049">y1=w*y</text>
</g>
<!-- x&#45;&gt;* -->
<g id="edge1" class="edge">
<title>x&#45;&gt;*</title>
<path fill="none" stroke="#003049" d="M108.25,-124.95C117.23,-123.25 126.62,-121.48 135.8,-119.74"/>
<polygon fill="#003049" stroke="#003049" points="145.66,-117.88 136.67,-124.16 140.75,-118.81 135.83,-119.74 135.83,-119.74 135.83,-119.74 140.75,-118.81 135,-115.32 145.66,-117.88 145.66,-117.88"/>
</g>
<!-- w -->
<g id="node2" class="node">
<title>w</title>
<path fill="#fcbf49" stroke="black" stroke-width="0" d="M96,-99C96,-99 12,-99 12,-99 6,-99 0,-93 0,-87 0,-87 0,-75 0,-75 0,-69 6,-63 12,-63 12,-63 96,-63 96,-63 102,-63 108,-69 108,-75 108,-75 108,-87 108,-87 108,-93 102,-99 96,-99"/>
<text text-anchor="middle" x="54" y="-77.3" font-family="Helvetica,Arial,sans-serif" font-size="14.00" fill="#003049">w</text>
</g>
<!-- w&#45;&gt;* -->
<g id="edge2" class="edge">
<title>w&#45;&gt;*</title>
<path fill="none" stroke="#003049" d="M108.25,-91.05C117.23,-92.75 126.62,-94.52 135.8,-96.26"/>
<polygon fill="#003049" stroke="#003049" points="145.66,-98.12 135,-100.68 140.75,-97.19 135.83,-96.26 135.83,-96.26 135.83,-96.26 140.75,-97.19 136.67,-91.84 145.66,-98.12 145.66,-98.12"/>
</g>
<!-- &#45; -->
<g id="node5" class="node">
<title>&#45;</title>
<path fill="#fcbf49" stroke="black" stroke-width="0" d="M400,-53C400,-53 316,-53 316,-53 310,-53 304,-47 304,-41 304,-41 304,-27 304,-27 304,-21 310,-15 316,-15 316,-15 400,-15 400,-15 406,-15 412,-21 412,-27 412,-27 412,-41 412,-41 412,-47 406,-53 400,-53"/>
<text text-anchor="middle" x="358" y="-37.8" font-family="Helvetica,Arial,sans-serif" font-size="14.00" fill="#003049">&#45;</text>
<text text-anchor="middle" x="358" y="-22.8" font-family="Helvetica,Arial,sans-serif" font-size="14.00" fill="#003049">s= y1&#45;y</text>
</g>
<!-- *&#45;&gt;&#45; -->
<g id="edge3" class="edge">
<title>*&#45;&gt;&#45;</title>
<path fill="none" stroke="#003049" d="M248.39,-85.19C267.04,-76.4 288.36,-66.35 307.15,-57.49"/>
<polygon fill="#003049" stroke="#003049" points="316.43,-53.12 309.31,-61.45 311.91,-55.25 307.39,-57.38 307.39,-57.38 307.39,-57.38 311.91,-55.25 305.47,-53.31 316.43,-53.12 316.43,-53.12"/>
<text text-anchor="middle" x="278.5" y="-76.8" font-family="Helvetica,Arial,sans-serif" font-size="14.00">y1</text>
</g>
<!-- y -->
<g id="node4" class="node">
<title>y</title>
<path fill="#fcbf49" stroke="black" stroke-width="0" d="M241,-36C241,-36 157,-36 157,-36 151,-36 145,-30 145,-24 145,-24 145,-12 145,-12 145,-6 151,0 157,0 157,0 241,0 241,0 247,0 253,-6 253,-12 253,-12 253,-24 253,-24 253,-30 247,-36 241,-36"/>
<text text-anchor="middle" x="199" y="-14.3" font-family="Helvetica,Arial,sans-serif" font-size="14.00" fill="#003049">y</text>
</g>
<!-- y&#45;&gt;&#45; -->
<g id="edge4" class="edge">
<title>y&#45;&gt;&#45;</title>
<path fill="none" stroke="#003049" d="M253.15,-23.42C266.2,-24.75 280.29,-26.18 293.75,-27.55"/>
<polygon fill="#003049" stroke="#003049" points="303.9,-28.59 293.5,-32.05 298.93,-28.08 293.95,-27.57 293.95,-27.57 293.95,-27.57 298.93,-28.08 294.41,-23.1 303.9,-28.59 303.9,-28.59"/>
</g>
<!-- ^2 -->
<g id="node6" class="node">
<title>^2</title>
<path fill="#fcbf49" stroke="black" stroke-width="0" d="M551,-53C551,-53 467,-53 467,-53 461,-53 455,-47 455,-41 455,-41 455,-27 455,-27 455,-21 461,-15 467,-15 467,-15 551,-15 551,-15 557,-15 563,-21 563,-27 563,-27 563,-41 563,-41 563,-47 557,-53 551,-53"/>
<text text-anchor="middle" x="509" y="-37.8" font-family="Helvetica,Arial,sans-serif" font-size="14.00" fill="#003049">^2</text>
<text text-anchor="middle" x="509" y="-22.8" font-family="Helvetica,Arial,sans-serif" font-size="14.00" fill="#003049">(y1&#45;y)^2</text>
</g>
<!-- &#45;&#45;&gt;^2 -->
<g id="edge5" class="edge">
<title>&#45;&#45;&gt;^2</title>
<path fill="none" stroke="#003049" d="M412.37,-34C422.81,-34 433.86,-34 444.59,-34"/>
<polygon fill="#003049" stroke="#003049" points="454.75,-34 444.75,-38.5 449.75,-34 444.75,-34 444.75,-34 444.75,-34 449.75,-34 444.75,-29.5 454.75,-34 454.75,-34"/>
<text text-anchor="middle" x="433.5" y="-37.8" font-family="Helvetica,Arial,sans-serif" font-size="14.00">s</text>
</g>
<!-- Loss -->
<g id="node7" class="node">
<title>Loss</title>
<path fill="#fcbf49" stroke="black" stroke-width="0" d="M696,-52C696,-52 612,-52 612,-52 606,-52 600,-46 600,-40 600,-40 600,-28 600,-28 600,-22 606,-16 612,-16 612,-16 696,-16 696,-16 702,-16 708,-22 708,-28 708,-28 708,-40 708,-40 708,-46 702,-52 696,-52"/>
<text text-anchor="middle" x="654" y="-30.3" font-family="Helvetica,Arial,sans-serif" font-size="14.00" fill="#003049">Loss</text>
</g>
<!-- ^2&#45;&gt;Loss -->
<g id="edge6" class="edge">
<title>^2&#45;&gt;Loss</title>
<path fill="none" stroke="#003049" d="M563.25,-34C571.81,-34 580.74,-34 589.52,-34"/>
<polygon fill="#003049" stroke="#003049" points="599.71,-34 589.71,-38.5 594.71,-34 589.71,-34 589.71,-34 589.71,-34 594.71,-34 589.71,-29.5 599.71,-34 599.71,-34"/>
</g>
</g>
</svg>
