<?xml version="1.0" encoding="UTF-8" standalone="no"?>
<!DOCTYPE svg PUBLIC "-//W3C//DTD SVG 1.1//EN"
 "http://www.w3.org/Graphics/SVG/1.1/DTD/svg11.dtd">
<!-- Generated by graphviz version 2.43.0 (0)
 -->
<!-- Title: %3 Pages: 1 -->
<svg width="404pt" height="116pt"
 viewBox="0.00 0.00 404.00 116.00" xmlns="http://www.w3.org/2000/svg" xmlns:xlink="http://www.w3.org/1999/xlink">
<g id="graph0" class="graph" transform="scale(1 1) rotate(0) translate(4 112)">
<title>%3</title>
<polygon fill="white" stroke="transparent" points="-4,4 -4,-112 400,-112 400,4 -4,4"/>
<!-- x -->
<g id="node1" class="node">
<title>x</title>
<path fill="#fcbf49" stroke="black" stroke-width="0" d="M96,-99C96,-99 12,-99 12,-99 6,-99 0,-93 0,-87 0,-87 0,-75 0,-75 0,-69 6,-63 12,-63 12,-63 96,-63 96,-63 102,-63 108,-69 108,-75 108,-75 108,-87 108,-87 108,-93 102,-99 96,-99"/>
<text text-anchor="middle" x="54" y="-77.3" font-family="Helvetica,Arial,sans-serif" font-size="14.00" fill="#003049">x</text>
</g>
<!-- * -->
<g id="node2" class="node">
<title>*</title>
<ellipse fill="#fcbf49" stroke="black" stroke-width="0" cx="198" cy="-54" rx="54" ry="54"/>
<text text-anchor="middle" x="198" y="-50.3" font-family="Helvetica,Arial,sans-serif" font-size="14.00" fill="#003049">f=x*y</text>
</g>
<!-- x&#45;&gt;* -->
<g id="edge1" class="edge">
<title>x&#45;&gt;*</title>
<path fill="none" stroke="#003049" d="M108.28,-70.87C116.97,-69.22 126.04,-67.49 134.92,-65.8"/>
<polygon fill="#003049" stroke="#003049" points="144.84,-63.92 135.85,-70.21 139.92,-64.85 135.01,-65.79 135.01,-65.79 135.01,-65.79 139.92,-64.85 134.17,-61.37 144.84,-63.92 144.84,-63.92"/>
</g>
<!-- z -->
<g id="node4" class="node">
<title>z</title>
<path fill="#fcbf49" stroke="black" stroke-width="0" d="M384,-72C384,-72 300,-72 300,-72 294,-72 288,-66 288,-60 288,-60 288,-48 288,-48 288,-42 294,-36 300,-36 300,-36 384,-36 384,-36 390,-36 396,-42 396,-48 396,-48 396,-60 396,-60 396,-66 390,-72 384,-72"/>
<text text-anchor="middle" x="342" y="-50.3" font-family="Helvetica,Arial,sans-serif" font-size="14.00" fill="#003049">z</text>
</g>
<!-- *&#45;&gt;z -->
<g id="edge3" class="edge">
<title>*&#45;&gt;z</title>
<path fill="none" stroke="#003049" d="M252.28,-54C260.56,-54 269.18,-54 277.66,-54"/>
<polygon fill="#003049" stroke="#003049" points="287.89,-54 277.89,-58.5 282.89,-54 277.89,-54 277.89,-54 277.89,-54 282.89,-54 277.89,-49.5 287.89,-54 287.89,-54"/>
</g>
<!-- y -->
<g id="node3" class="node">
<title>y</title>
<path fill="#fcbf49" stroke="black" stroke-width="0" d="M96,-45C96,-45 12,-45 12,-45 6,-45 0,-39 0,-33 0,-33 0,-21 0,-21 0,-15 6,-9 12,-9 12,-9 96,-9 96,-9 102,-9 108,-15 108,-21 108,-21 108,-33 108,-33 108,-39 102,-45 96,-45"/>
<text text-anchor="middle" x="54" y="-23.3" font-family="Helvetica,Arial,sans-serif" font-size="14.00" fill="#003049">y</text>
</g>
<!-- y&#45;&gt;* -->
<g id="edge2" class="edge">
<title>y&#45;&gt;*</title>
<path fill="none" stroke="#003049" d="M108.28,-37.13C116.97,-38.78 126.04,-40.51 134.92,-42.2"/>
<polygon fill="#003049" stroke="#003049" points="144.84,-44.08 134.17,-46.63 139.92,-43.15 135.01,-42.21 135.01,-42.21 135.01,-42.21 139.92,-43.15 135.85,-37.79 144.84,-44.08 144.84,-44.08"/>
</g>
</g>
</svg>
