<?xml version="1.0" encoding="UTF-8" standalone="no"?>
<!DOCTYPE svg PUBLIC "-//W3C//DTD SVG 1.1//EN"
 "http://www.w3.org/Graphics/SVG/1.1/DTD/svg11.dtd">
<!-- Generated by graphviz version 2.43.0 (0)
 -->
<!-- Title: %3 Pages: 1 -->
<svg width="581pt" height="644pt"
 viewBox="0.00 0.00 581.00 644.00" xmlns="http://www.w3.org/2000/svg" xmlns:xlink="http://www.w3.org/1999/xlink">
<g id="graph0" class="graph" transform="scale(1 1) rotate(0) translate(4 640)">
<title>%3</title>
<polygon fill="white" stroke="transparent" points="-4,4 -4,-640 577,-640 577,4 -4,4"/>
<!-- 139960825256912 -->
<g id="node1" class="node">
<title>139960825256912</title>
<polygon fill="#caff70" stroke="black" points="427,-31 362,-31 362,0 427,0 427,-31"/>
<text text-anchor="middle" x="394.5" y="-7" font-family="monospace" font-size="10.00"> (1, 10)</text>
</g>
<!-- 139960829656848 -->
<g id="node2" class="node">
<title>139960829656848</title>
<polygon fill="lightgrey" stroke="black" points="445,-86 344,-86 344,-67 445,-67 445,-86"/>
<text text-anchor="middle" x="394.5" y="-74" font-family="monospace" font-size="10.00">AddmmBackward0</text>
</g>
<!-- 139960829656848&#45;&gt;139960825256912 -->
<g id="edge25" class="edge">
<title>139960829656848&#45;&gt;139960825256912</title>
<path fill="none" stroke="black" d="M394.5,-66.79C394.5,-60.07 394.5,-50.4 394.5,-41.34"/>
<polygon fill="black" stroke="black" points="398,-41.19 394.5,-31.19 391,-41.19 398,-41.19"/>
</g>
<!-- 139960829654016 -->
<g id="node3" class="node">
<title>139960829654016</title>
<polygon fill="lightgrey" stroke="black" points="329,-141 228,-141 228,-122 329,-122 329,-141"/>
<text text-anchor="middle" x="278.5" y="-129" font-family="monospace" font-size="10.00">AccumulateGrad</text>
</g>
<!-- 139960829654016&#45;&gt;139960829656848 -->
<g id="edge1" class="edge">
<title>139960829654016&#45;&gt;139960829656848</title>
<path fill="none" stroke="black" d="M297.14,-121.98C315.8,-113.46 344.75,-100.23 366.24,-90.41"/>
<polygon fill="black" stroke="black" points="367.88,-93.51 375.52,-86.17 364.97,-87.14 367.88,-93.51"/>
</g>
<!-- 139961633306768 -->
<g id="node4" class="node">
<title>139961633306768</title>
<polygon fill="lightblue" stroke="black" points="323,-207 234,-207 234,-177 323,-177 323,-207"/>
<text text-anchor="middle" x="278.5" y="-195" font-family="monospace" font-size="10.00">model.7.bias</text>
<text text-anchor="middle" x="278.5" y="-184" font-family="monospace" font-size="10.00"> (10)</text>
</g>
<!-- 139961633306768&#45;&gt;139960829654016 -->
<g id="edge2" class="edge">
<title>139961633306768&#45;&gt;139960829654016</title>
<path fill="none" stroke="black" d="M278.5,-176.84C278.5,-169.21 278.5,-159.7 278.5,-151.45"/>
<polygon fill="black" stroke="black" points="282,-151.27 278.5,-141.27 275,-151.27 282,-151.27"/>
</g>
<!-- 139960829650608 -->
<g id="node5" class="node">
<title>139960829650608</title>
<polygon fill="lightgrey" stroke="black" points="442,-141 347,-141 347,-122 442,-122 442,-141"/>
<text text-anchor="middle" x="394.5" y="-129" font-family="monospace" font-size="10.00">ViewBackward0</text>
</g>
<!-- 139960829650608&#45;&gt;139960829656848 -->
<g id="edge3" class="edge">
<title>139960829650608&#45;&gt;139960829656848</title>
<path fill="none" stroke="black" d="M394.5,-121.75C394.5,-114.8 394.5,-104.85 394.5,-96.13"/>
<polygon fill="black" stroke="black" points="398,-96.09 394.5,-86.09 391,-96.09 398,-96.09"/>
</g>
<!-- 139960829654592 -->
<g id="node6" class="node">
<title>139960829654592</title>
<polygon fill="lightgrey" stroke="black" points="439,-201.5 344,-201.5 344,-182.5 439,-182.5 439,-201.5"/>
<text text-anchor="middle" x="391.5" y="-189.5" font-family="monospace" font-size="10.00">ReluBackward0</text>
</g>
<!-- 139960829654592&#45;&gt;139960829650608 -->
<g id="edge4" class="edge">
<title>139960829654592&#45;&gt;139960829650608</title>
<path fill="none" stroke="black" d="M391.94,-182.37C392.36,-174.25 393,-161.81 393.53,-151.39"/>
<polygon fill="black" stroke="black" points="397.04,-151.33 394.06,-141.17 390.05,-150.97 397.04,-151.33"/>
</g>
<!-- 139960829641248 -->
<g id="node7" class="node">
<title>139960829641248</title>
<polygon fill="lightgrey" stroke="black" points="454,-267.5 317,-267.5 317,-248.5 454,-248.5 454,-267.5"/>
<text text-anchor="middle" x="385.5" y="-255.5" font-family="monospace" font-size="10.00">ConvolutionBackward0</text>
</g>
<!-- 139960829641248&#45;&gt;139960829654592 -->
<g id="edge5" class="edge">
<title>139960829641248&#45;&gt;139960829654592</title>
<path fill="none" stroke="black" d="M386.31,-248.37C387.18,-239.07 388.6,-223.98 389.73,-211.9"/>
<polygon fill="black" stroke="black" points="393.22,-212.19 390.67,-201.91 386.25,-211.53 393.22,-212.19"/>
</g>
<!-- 139960829650464 -->
<g id="node8" class="node">
<title>139960829650464</title>
<polygon fill="lightgrey" stroke="black" points="306,-328 211,-328 211,-309 306,-309 306,-328"/>
<text text-anchor="middle" x="258.5" y="-316" font-family="monospace" font-size="10.00">ReluBackward0</text>
</g>
<!-- 139960829650464&#45;&gt;139960829641248 -->
<g id="edge6" class="edge">
<title>139960829650464&#45;&gt;139960829641248</title>
<path fill="none" stroke="black" d="M276.97,-308.99C298.22,-299.2 333.35,-283.02 357.87,-271.73"/>
<polygon fill="black" stroke="black" points="359.39,-274.88 367.01,-267.52 356.46,-268.52 359.39,-274.88"/>
</g>
<!-- 139960829650080 -->
<g id="node9" class="node">
<title>139960829650080</title>
<polygon fill="lightgrey" stroke="black" points="316,-388.5 179,-388.5 179,-369.5 316,-369.5 316,-388.5"/>
<text text-anchor="middle" x="247.5" y="-376.5" font-family="monospace" font-size="10.00">ConvolutionBackward0</text>
</g>
<!-- 139960829650080&#45;&gt;139960829650464 -->
<g id="edge7" class="edge">
<title>139960829650080&#45;&gt;139960829650464</title>
<path fill="none" stroke="black" d="M249.12,-369.37C250.67,-361.16 253.04,-348.54 255.01,-338.05"/>
<polygon fill="black" stroke="black" points="258.46,-338.64 256.87,-328.17 251.58,-337.35 258.46,-338.64"/>
</g>
<!-- 139960829652432 -->
<g id="node10" class="node">
<title>139960829652432</title>
<polygon fill="lightgrey" stroke="black" points="168,-449 73,-449 73,-430 168,-430 168,-449"/>
<text text-anchor="middle" x="120.5" y="-437" font-family="monospace" font-size="10.00">ReluBackward0</text>
</g>
<!-- 139960829652432&#45;&gt;139960829650080 -->
<g id="edge8" class="edge">
<title>139960829652432&#45;&gt;139960829650080</title>
<path fill="none" stroke="black" d="M138.97,-429.99C160.22,-420.2 195.35,-404.02 219.87,-392.73"/>
<polygon fill="black" stroke="black" points="221.39,-395.88 229.01,-388.52 218.46,-389.52 221.39,-395.88"/>
</g>
<!-- 139960829649600 -->
<g id="node11" class="node">
<title>139960829649600</title>
<polygon fill="lightgrey" stroke="black" points="178,-509.5 41,-509.5 41,-490.5 178,-490.5 178,-509.5"/>
<text text-anchor="middle" x="109.5" y="-497.5" font-family="monospace" font-size="10.00">ConvolutionBackward0</text>
</g>
<!-- 139960829649600&#45;&gt;139960829652432 -->
<g id="edge9" class="edge">
<title>139960829649600&#45;&gt;139960829652432</title>
<path fill="none" stroke="black" d="M111.12,-490.37C112.67,-482.16 115.04,-469.54 117.01,-459.05"/>
<polygon fill="black" stroke="black" points="120.46,-459.64 118.87,-449.17 113.58,-458.35 120.46,-459.64"/>
</g>
<!-- 139960829654640 -->
<g id="node12" class="node">
<title>139960829654640</title>
<polygon fill="lightgrey" stroke="black" points="101,-570 0,-570 0,-551 101,-551 101,-570"/>
<text text-anchor="middle" x="50.5" y="-558" font-family="monospace" font-size="10.00">AccumulateGrad</text>
</g>
<!-- 139960829654640&#45;&gt;139960829649600 -->
<g id="edge10" class="edge">
<title>139960829654640&#45;&gt;139960829649600</title>
<path fill="none" stroke="black" d="M59.21,-550.87C68.18,-541.97 82.38,-527.89 93.41,-516.95"/>
<polygon fill="black" stroke="black" points="96.12,-519.19 100.76,-509.67 91.19,-514.22 96.12,-519.19"/>
</g>
<!-- 139961633304768 -->
<g id="node13" class="node">
<title>139961633304768</title>
<polygon fill="lightblue" stroke="black" points="101,-636 0,-636 0,-606 101,-606 101,-636"/>
<text text-anchor="middle" x="50.5" y="-624" font-family="monospace" font-size="10.00">model.0.weight</text>
<text text-anchor="middle" x="50.5" y="-613" font-family="monospace" font-size="10.00"> (32, 3, 3, 3)</text>
</g>
<!-- 139961633304768&#45;&gt;139960829654640 -->
<g id="edge11" class="edge">
<title>139961633304768&#45;&gt;139960829654640</title>
<path fill="none" stroke="black" d="M50.5,-605.84C50.5,-598.21 50.5,-588.7 50.5,-580.45"/>
<polygon fill="black" stroke="black" points="54,-580.27 50.5,-570.27 47,-580.27 54,-580.27"/>
</g>
<!-- 139960829655552 -->
<g id="node14" class="node">
<title>139960829655552</title>
<polygon fill="lightgrey" stroke="black" points="220,-570 119,-570 119,-551 220,-551 220,-570"/>
<text text-anchor="middle" x="169.5" y="-558" font-family="monospace" font-size="10.00">AccumulateGrad</text>
</g>
<!-- 139960829655552&#45;&gt;139960829649600 -->
<g id="edge12" class="edge">
<title>139960829655552&#45;&gt;139960829649600</title>
<path fill="none" stroke="black" d="M160.65,-550.87C151.52,-541.97 137.08,-527.89 125.86,-516.95"/>
<polygon fill="black" stroke="black" points="127.99,-514.14 118.39,-509.67 123.11,-519.15 127.99,-514.14"/>
</g>
<!-- 139961633305088 -->
<g id="node15" class="node">
<title>139961633305088</title>
<polygon fill="lightblue" stroke="black" points="214,-636 125,-636 125,-606 214,-606 214,-636"/>
<text text-anchor="middle" x="169.5" y="-624" font-family="monospace" font-size="10.00">model.0.bias</text>
<text text-anchor="middle" x="169.5" y="-613" font-family="monospace" font-size="10.00"> (32)</text>
</g>
<!-- 139961633305088&#45;&gt;139960829655552 -->
<g id="edge13" class="edge">
<title>139961633305088&#45;&gt;139960829655552</title>
<path fill="none" stroke="black" d="M169.5,-605.84C169.5,-598.21 169.5,-588.7 169.5,-580.45"/>
<polygon fill="black" stroke="black" points="173,-580.27 169.5,-570.27 166,-580.27 173,-580.27"/>
</g>
<!-- 139960829655312 -->
<g id="node16" class="node">
<title>139960829655312</title>
<polygon fill="lightgrey" stroke="black" points="298,-449 197,-449 197,-430 298,-430 298,-449"/>
<text text-anchor="middle" x="247.5" y="-437" font-family="monospace" font-size="10.00">AccumulateGrad</text>
</g>
<!-- 139960829655312&#45;&gt;139960829650080 -->
<g id="edge14" class="edge">
<title>139960829655312&#45;&gt;139960829650080</title>
<path fill="none" stroke="black" d="M247.5,-429.87C247.5,-421.75 247.5,-409.31 247.5,-398.89"/>
<polygon fill="black" stroke="black" points="251,-398.67 247.5,-388.67 244,-398.67 251,-398.67"/>
</g>
<!-- 139961633306128 -->
<g id="node17" class="node">
<title>139961633306128</title>
<polygon fill="lightblue" stroke="black" points="303,-515 196,-515 196,-485 303,-485 303,-515"/>
<text text-anchor="middle" x="249.5" y="-503" font-family="monospace" font-size="10.00">model.2.weight</text>
<text text-anchor="middle" x="249.5" y="-492" font-family="monospace" font-size="10.00"> (64, 32, 3, 3)</text>
</g>
<!-- 139961633306128&#45;&gt;139960829655312 -->
<g id="edge15" class="edge">
<title>139961633306128&#45;&gt;139960829655312</title>
<path fill="none" stroke="black" d="M249.02,-484.84C248.76,-477.21 248.43,-467.7 248.15,-459.45"/>
<polygon fill="black" stroke="black" points="251.64,-459.14 247.8,-449.27 244.64,-459.38 251.64,-459.14"/>
</g>
<!-- 139960829656992 -->
<g id="node18" class="node">
<title>139960829656992</title>
<polygon fill="lightgrey" stroke="black" points="417,-449 316,-449 316,-430 417,-430 417,-449"/>
<text text-anchor="middle" x="366.5" y="-437" font-family="monospace" font-size="10.00">AccumulateGrad</text>
</g>
<!-- 139960829656992&#45;&gt;139960829650080 -->
<g id="edge16" class="edge">
<title>139960829656992&#45;&gt;139960829650080</title>
<path fill="none" stroke="black" d="M349.2,-429.99C329.45,-420.29 296.95,-404.31 274.01,-393.03"/>
<polygon fill="black" stroke="black" points="275.34,-389.79 264.82,-388.52 272.25,-396.07 275.34,-389.79"/>
</g>
<!-- 139961633306208 -->
<g id="node19" class="node">
<title>139961633306208</title>
<polygon fill="lightblue" stroke="black" points="411,-515 322,-515 322,-485 411,-485 411,-515"/>
<text text-anchor="middle" x="366.5" y="-503" font-family="monospace" font-size="10.00">model.2.bias</text>
<text text-anchor="middle" x="366.5" y="-492" font-family="monospace" font-size="10.00"> (64)</text>
</g>
<!-- 139961633306208&#45;&gt;139960829656992 -->
<g id="edge17" class="edge">
<title>139961633306208&#45;&gt;139960829656992</title>
<path fill="none" stroke="black" d="M366.5,-484.84C366.5,-477.21 366.5,-467.7 366.5,-459.45"/>
<polygon fill="black" stroke="black" points="370,-459.27 366.5,-449.27 363,-459.27 370,-459.27"/>
</g>
<!-- 139960829648256 -->
<g id="node20" class="node">
<title>139960829648256</title>
<polygon fill="lightgrey" stroke="black" points="436,-328 335,-328 335,-309 436,-309 436,-328"/>
<text text-anchor="middle" x="385.5" y="-316" font-family="monospace" font-size="10.00">AccumulateGrad</text>
</g>
<!-- 139960829648256&#45;&gt;139960829641248 -->
<g id="edge18" class="edge">
<title>139960829648256&#45;&gt;139960829641248</title>
<path fill="none" stroke="black" d="M385.5,-308.87C385.5,-300.75 385.5,-288.31 385.5,-277.89"/>
<polygon fill="black" stroke="black" points="389,-277.67 385.5,-267.67 382,-277.67 389,-277.67"/>
</g>
<!-- 139961633306368 -->
<g id="node21" class="node">
<title>139961633306368</title>
<polygon fill="lightblue" stroke="black" points="441,-394 334,-394 334,-364 441,-364 441,-394"/>
<text text-anchor="middle" x="387.5" y="-382" font-family="monospace" font-size="10.00">model.4.weight</text>
<text text-anchor="middle" x="387.5" y="-371" font-family="monospace" font-size="10.00"> (64, 64, 3, 3)</text>
</g>
<!-- 139961633306368&#45;&gt;139960829648256 -->
<g id="edge19" class="edge">
<title>139961633306368&#45;&gt;139960829648256</title>
<path fill="none" stroke="black" d="M387.02,-363.84C386.76,-356.21 386.43,-346.7 386.15,-338.45"/>
<polygon fill="black" stroke="black" points="389.64,-338.14 385.8,-328.27 382.64,-338.38 389.64,-338.14"/>
</g>
<!-- 139960829654352 -->
<g id="node22" class="node">
<title>139960829654352</title>
<polygon fill="lightgrey" stroke="black" points="555,-328 454,-328 454,-309 555,-309 555,-328"/>
<text text-anchor="middle" x="504.5" y="-316" font-family="monospace" font-size="10.00">AccumulateGrad</text>
</g>
<!-- 139960829654352&#45;&gt;139960829641248 -->
<g id="edge20" class="edge">
<title>139960829654352&#45;&gt;139960829641248</title>
<path fill="none" stroke="black" d="M487.2,-308.99C467.45,-299.29 434.95,-283.31 412.01,-272.03"/>
<polygon fill="black" stroke="black" points="413.34,-268.79 402.82,-267.52 410.25,-275.07 413.34,-268.79"/>
</g>
<!-- 139961633306448 -->
<g id="node23" class="node">
<title>139961633306448</title>
<polygon fill="lightblue" stroke="black" points="549,-394 460,-394 460,-364 549,-364 549,-394"/>
<text text-anchor="middle" x="504.5" y="-382" font-family="monospace" font-size="10.00">model.4.bias</text>
<text text-anchor="middle" x="504.5" y="-371" font-family="monospace" font-size="10.00"> (64)</text>
</g>
<!-- 139961633306448&#45;&gt;139960829654352 -->
<g id="edge21" class="edge">
<title>139961633306448&#45;&gt;139960829654352</title>
<path fill="none" stroke="black" d="M504.5,-363.84C504.5,-356.21 504.5,-346.7 504.5,-338.45"/>
<polygon fill="black" stroke="black" points="508,-338.27 504.5,-328.27 501,-338.27 508,-338.27"/>
</g>
<!-- 139960829649648 -->
<g id="node24" class="node">
<title>139960829649648</title>
<polygon fill="lightgrey" stroke="black" points="540,-141 463,-141 463,-122 540,-122 540,-141"/>
<text text-anchor="middle" x="501.5" y="-129" font-family="monospace" font-size="10.00">TBackward0</text>
</g>
<!-- 139960829649648&#45;&gt;139960829656848 -->
<g id="edge22" class="edge">
<title>139960829649648&#45;&gt;139960829656848</title>
<path fill="none" stroke="black" d="M484.31,-121.98C467.25,-113.54 440.87,-100.47 421.1,-90.68"/>
<polygon fill="black" stroke="black" points="422.52,-87.47 412,-86.17 419.41,-93.75 422.52,-87.47"/>
</g>
<!-- 139960829656320 -->
<g id="node25" class="node">
<title>139960829656320</title>
<polygon fill="lightgrey" stroke="black" points="563,-201.5 462,-201.5 462,-182.5 563,-182.5 563,-201.5"/>
<text text-anchor="middle" x="512.5" y="-189.5" font-family="monospace" font-size="10.00">AccumulateGrad</text>
</g>
<!-- 139960829656320&#45;&gt;139960829649648 -->
<g id="edge23" class="edge">
<title>139960829656320&#45;&gt;139960829649648</title>
<path fill="none" stroke="black" d="M510.88,-182.37C509.33,-174.16 506.96,-161.54 504.99,-151.05"/>
<polygon fill="black" stroke="black" points="508.42,-150.35 503.13,-141.17 501.54,-151.64 508.42,-150.35"/>
</g>
<!-- 139961633306688 -->
<g id="node26" class="node">
<title>139961633306688</title>
<polygon fill="lightblue" stroke="black" points="573,-273 472,-273 472,-243 573,-243 573,-273"/>
<text text-anchor="middle" x="522.5" y="-261" font-family="monospace" font-size="10.00">model.7.weight</text>
<text text-anchor="middle" x="522.5" y="-250" font-family="monospace" font-size="10.00"> (10, 43264)</text>
</g>
<!-- 139961633306688&#45;&gt;139960829656320 -->
<g id="edge24" class="edge">
<title>139961633306688&#45;&gt;139960829656320</title>
<path fill="none" stroke="black" d="M520.28,-242.8C518.86,-233.7 517,-221.79 515.45,-211.9"/>
<polygon fill="black" stroke="black" points="518.88,-211.18 513.88,-201.84 511.97,-212.26 518.88,-211.18"/>
</g>
</g>
</svg>
