<?xml version="1.0" encoding="UTF-8" standalone="no"?>
<!DOCTYPE svg PUBLIC "-//W3C//DTD SVG 1.1//EN"
 "http://www.w3.org/Graphics/SVG/1.1/DTD/svg11.dtd">
<!-- Generated by graphviz version 2.43.0 (0)
 -->
<!-- Title: %3 Pages: 1 -->
<svg width="118pt" height="713pt"
 viewBox="0.00 0.00 118.00 713.00" xmlns="http://www.w3.org/2000/svg" xmlns:xlink="http://www.w3.org/1999/xlink">
<g id="graph0" class="graph" transform="scale(1 1) rotate(0) translate(4 709)">
<title>%3</title>
<polygon fill="white" stroke="transparent" points="-4,4 -4,-709 114,-709 114,4 -4,4"/>
<!-- 
ImageClassifier -->
<g id="node1" class="node">
<title>
ImageClassifier</title>
<path fill="#fcbf49" stroke="black" stroke-width="0" d="M98,-705C98,-705 12,-705 12,-705 6,-705 0,-699 0,-693 0,-693 0,-678 0,-678 0,-672 6,-666 12,-666 12,-666 98,-666 98,-666 104,-666 110,-672 110,-678 110,-678 110,-693 110,-693 110,-699 104,-705 98,-705"/>
<text text-anchor="middle" x="55" y="-673.8" font-family="Helvetica,Arial,sans-serif" font-size="14.00" fill="#003049">ImageClassifier</text>
</g>
<!-- model
Sequential -->
<g id="node2" class="node">
<title>model
Sequential</title>
<path fill="#fcbf49" stroke="black" stroke-width="0" d="M97,-630C97,-630 13,-630 13,-630 7,-630 1,-624 1,-618 1,-618 1,-604 1,-604 1,-598 7,-592 13,-592 13,-592 97,-592 97,-592 103,-592 109,-598 109,-604 109,-604 109,-618 109,-618 109,-624 103,-630 97,-630"/>
<text text-anchor="middle" x="55" y="-614.8" font-family="Helvetica,Arial,sans-serif" font-size="14.00" fill="#003049">model</text>
<text text-anchor="middle" x="55" y="-599.8" font-family="Helvetica,Arial,sans-serif" font-size="14.00" fill="#003049">Sequential</text>
</g>
<!-- 
ImageClassifier&#45;&gt;model
Sequential -->
<g id="edge1" class="edge">
<title>
ImageClassifier&#45;&gt;model
Sequential</title>
<path fill="none" stroke="#003049" d="M55,-665.83C55,-658.16 55,-649.1 55,-640.63"/>
<polygon fill="#003049" stroke="#003049" points="55,-630.36 59.5,-640.36 55,-635.36 55,-640.36 55,-640.36 55,-640.36 55,-635.36 50.5,-640.36 55,-630.36 55,-630.36"/>
</g>
<!-- model.0
Conv2d -->
<g id="node3" class="node">
<title>model.0
Conv2d</title>
<path fill="#fcbf49" stroke="black" stroke-width="0" d="M97,-556C97,-556 13,-556 13,-556 7,-556 1,-550 1,-544 1,-544 1,-530 1,-530 1,-524 7,-518 13,-518 13,-518 97,-518 97,-518 103,-518 109,-524 109,-530 109,-530 109,-544 109,-544 109,-550 103,-556 97,-556"/>
<text text-anchor="middle" x="55" y="-540.8" font-family="Helvetica,Arial,sans-serif" font-size="14.00" fill="#003049">model.0</text>
<text text-anchor="middle" x="55" y="-525.8" font-family="Helvetica,Arial,sans-serif" font-size="14.00" fill="#003049">Conv2d</text>
</g>
<!-- model
Sequential&#45;&gt;model.0
Conv2d -->
<g id="edge2" class="edge">
<title>model
Sequential&#45;&gt;model.0
Conv2d</title>
<path fill="none" stroke="#003049" d="M55,-591.83C55,-584.13 55,-574.97 55,-566.42"/>
<polygon fill="#003049" stroke="#003049" points="55,-556.41 59.5,-566.41 55,-561.41 55,-566.41 55,-566.41 55,-566.41 55,-561.41 50.5,-566.41 55,-556.41 55,-556.41"/>
</g>
<!-- model.1
ReLU -->
<g id="node4" class="node">
<title>model.1
ReLU</title>
<path fill="#fcbf49" stroke="black" stroke-width="0" d="M97,-482C97,-482 13,-482 13,-482 7,-482 1,-476 1,-470 1,-470 1,-456 1,-456 1,-450 7,-444 13,-444 13,-444 97,-444 97,-444 103,-444 109,-450 109,-456 109,-456 109,-470 109,-470 109,-476 103,-482 97,-482"/>
<text text-anchor="middle" x="55" y="-466.8" font-family="Helvetica,Arial,sans-serif" font-size="14.00" fill="#003049">model.1</text>
<text text-anchor="middle" x="55" y="-451.8" font-family="Helvetica,Arial,sans-serif" font-size="14.00" fill="#003049">ReLU</text>
</g>
<!-- model.0
Conv2d&#45;&gt;model.1
ReLU -->
<g id="edge3" class="edge">
<title>model.0
Conv2d&#45;&gt;model.1
ReLU</title>
<path fill="none" stroke="#003049" d="M55,-517.83C55,-510.13 55,-500.97 55,-492.42"/>
<polygon fill="#003049" stroke="#003049" points="55,-482.41 59.5,-492.41 55,-487.41 55,-492.41 55,-492.41 55,-492.41 55,-487.41 50.5,-492.41 55,-482.41 55,-482.41"/>
</g>
<!-- model.2
Conv2d -->
<g id="node5" class="node">
<title>model.2
Conv2d</title>
<path fill="#fcbf49" stroke="black" stroke-width="0" d="M97,-408C97,-408 13,-408 13,-408 7,-408 1,-402 1,-396 1,-396 1,-382 1,-382 1,-376 7,-370 13,-370 13,-370 97,-370 97,-370 103,-370 109,-376 109,-382 109,-382 109,-396 109,-396 109,-402 103,-408 97,-408"/>
<text text-anchor="middle" x="55" y="-392.8" font-family="Helvetica,Arial,sans-serif" font-size="14.00" fill="#003049">model.2</text>
<text text-anchor="middle" x="55" y="-377.8" font-family="Helvetica,Arial,sans-serif" font-size="14.00" fill="#003049">Conv2d</text>
</g>
<!-- model.1
ReLU&#45;&gt;model.2
Conv2d -->
<g id="edge4" class="edge">
<title>model.1
ReLU&#45;&gt;model.2
Conv2d</title>
<path fill="none" stroke="#003049" d="M55,-443.83C55,-436.13 55,-426.97 55,-418.42"/>
<polygon fill="#003049" stroke="#003049" points="55,-408.41 59.5,-418.41 55,-413.41 55,-418.41 55,-418.41 55,-418.41 55,-413.41 50.5,-418.41 55,-408.41 55,-408.41"/>
</g>
<!-- model.3
ReLU -->
<g id="node6" class="node">
<title>model.3
ReLU</title>
<path fill="#fcbf49" stroke="black" stroke-width="0" d="M97,-334C97,-334 13,-334 13,-334 7,-334 1,-328 1,-322 1,-322 1,-308 1,-308 1,-302 7,-296 13,-296 13,-296 97,-296 97,-296 103,-296 109,-302 109,-308 109,-308 109,-322 109,-322 109,-328 103,-334 97,-334"/>
<text text-anchor="middle" x="55" y="-318.8" font-family="Helvetica,Arial,sans-serif" font-size="14.00" fill="#003049">model.3</text>
<text text-anchor="middle" x="55" y="-303.8" font-family="Helvetica,Arial,sans-serif" font-size="14.00" fill="#003049">ReLU</text>
</g>
<!-- model.2
Conv2d&#45;&gt;model.3
ReLU -->
<g id="edge5" class="edge">
<title>model.2
Conv2d&#45;&gt;model.3
ReLU</title>
<path fill="none" stroke="#003049" d="M55,-369.83C55,-362.13 55,-352.97 55,-344.42"/>
<polygon fill="#003049" stroke="#003049" points="55,-334.41 59.5,-344.41 55,-339.41 55,-344.41 55,-344.41 55,-344.41 55,-339.41 50.5,-344.41 55,-334.41 55,-334.41"/>
</g>
<!-- model.4
Conv2d -->
<g id="node7" class="node">
<title>model.4
Conv2d</title>
<path fill="#fcbf49" stroke="black" stroke-width="0" d="M97,-260C97,-260 13,-260 13,-260 7,-260 1,-254 1,-248 1,-248 1,-234 1,-234 1,-228 7,-222 13,-222 13,-222 97,-222 97,-222 103,-222 109,-228 109,-234 109,-234 109,-248 109,-248 109,-254 103,-260 97,-260"/>
<text text-anchor="middle" x="55" y="-244.8" font-family="Helvetica,Arial,sans-serif" font-size="14.00" fill="#003049">model.4</text>
<text text-anchor="middle" x="55" y="-229.8" font-family="Helvetica,Arial,sans-serif" font-size="14.00" fill="#003049">Conv2d</text>
</g>
<!-- model.3
ReLU&#45;&gt;model.4
Conv2d -->
<g id="edge6" class="edge">
<title>model.3
ReLU&#45;&gt;model.4
Conv2d</title>
<path fill="none" stroke="#003049" d="M55,-295.83C55,-288.13 55,-278.97 55,-270.42"/>
<polygon fill="#003049" stroke="#003049" points="55,-260.41 59.5,-270.41 55,-265.41 55,-270.41 55,-270.41 55,-270.41 55,-265.41 50.5,-270.41 55,-260.41 55,-260.41"/>
</g>
<!-- model.5
ReLU -->
<g id="node8" class="node">
<title>model.5
ReLU</title>
<path fill="#fcbf49" stroke="black" stroke-width="0" d="M97,-186C97,-186 13,-186 13,-186 7,-186 1,-180 1,-174 1,-174 1,-160 1,-160 1,-154 7,-148 13,-148 13,-148 97,-148 97,-148 103,-148 109,-154 109,-160 109,-160 109,-174 109,-174 109,-180 103,-186 97,-186"/>
<text text-anchor="middle" x="55" y="-170.8" font-family="Helvetica,Arial,sans-serif" font-size="14.00" fill="#003049">model.5</text>
<text text-anchor="middle" x="55" y="-155.8" font-family="Helvetica,Arial,sans-serif" font-size="14.00" fill="#003049">ReLU</text>
</g>
<!-- model.4
Conv2d&#45;&gt;model.5
ReLU -->
<g id="edge7" class="edge">
<title>model.4
Conv2d&#45;&gt;model.5
ReLU</title>
<path fill="none" stroke="#003049" d="M55,-221.83C55,-214.13 55,-204.97 55,-196.42"/>
<polygon fill="#003049" stroke="#003049" points="55,-186.41 59.5,-196.41 55,-191.41 55,-196.41 55,-196.41 55,-196.41 55,-191.41 50.5,-196.41 55,-186.41 55,-186.41"/>
</g>
<!-- model.6
Flatten -->
<g id="node9" class="node">
<title>model.6
Flatten</title>
<path fill="#fcbf49" stroke="black" stroke-width="0" d="M97,-112C97,-112 13,-112 13,-112 7,-112 1,-106 1,-100 1,-100 1,-86 1,-86 1,-80 7,-74 13,-74 13,-74 97,-74 97,-74 103,-74 109,-80 109,-86 109,-86 109,-100 109,-100 109,-106 103,-112 97,-112"/>
<text text-anchor="middle" x="55" y="-96.8" font-family="Helvetica,Arial,sans-serif" font-size="14.00" fill="#003049">model.6</text>
<text text-anchor="middle" x="55" y="-81.8" font-family="Helvetica,Arial,sans-serif" font-size="14.00" fill="#003049">Flatten</text>
</g>
<!-- model.5
ReLU&#45;&gt;model.6
Flatten -->
<g id="edge8" class="edge">
<title>model.5
ReLU&#45;&gt;model.6
Flatten</title>
<path fill="none" stroke="#003049" d="M55,-147.83C55,-140.13 55,-130.97 55,-122.42"/>
<polygon fill="#003049" stroke="#003049" points="55,-112.41 59.5,-122.41 55,-117.41 55,-122.41 55,-122.41 55,-122.41 55,-117.41 50.5,-122.41 55,-112.41 55,-112.41"/>
</g>
<!-- model.7
Linear -->
<g id="node10" class="node">
<title>model.7
Linear</title>
<path fill="#fcbf49" stroke="black" stroke-width="0" d="M97,-38C97,-38 13,-38 13,-38 7,-38 1,-32 1,-26 1,-26 1,-12 1,-12 1,-6 7,0 13,0 13,0 97,0 97,0 103,0 109,-6 109,-12 109,-12 109,-26 109,-26 109,-32 103,-38 97,-38"/>
<text text-anchor="middle" x="55" y="-22.8" font-family="Helvetica,Arial,sans-serif" font-size="14.00" fill="#003049">model.7</text>
<text text-anchor="middle" x="55" y="-7.8" font-family="Helvetica,Arial,sans-serif" font-size="14.00" fill="#003049">Linear</text>
</g>
<!-- model.6
Flatten&#45;&gt;model.7
Linear -->
<g id="edge9" class="edge">
<title>model.6
Flatten&#45;&gt;model.7
Linear</title>
<path fill="none" stroke="#003049" d="M55,-73.83C55,-66.13 55,-56.97 55,-48.42"/>
<polygon fill="#003049" stroke="#003049" points="55,-38.41 59.5,-48.41 55,-43.41 55,-48.41 55,-48.41 55,-48.41 55,-43.41 50.5,-48.41 55,-38.41 55,-38.41"/>
</g>
</g>
</svg>
